<svg xmlns="http://www.w3.org/2000/svg" width="471" height="160" viewBox="0 0 471 160">
  <g fill="#FFF">
    <rect width="16" height="77.714" x="50.286" y="40.914"/>
    <path d="M213.302857 41.1428571L213.302857 88.6857143C213.302857 96.8910877 206.651088 103.542857 198.445714 103.542857 190.240341 103.542857 183.588571 96.8910877 183.588571 88.6857143L183.588571 41.1428571 167.588571 41.1428571 167.588571 88.6857143C167.588571 105.727644 181.403785 119.542857 198.445714 119.542857 215.487644 119.542857 229.302857 105.727644 229.302857 88.6857143L229.302857 41.1428571 213.302857 41.1428571zM139.794286 94.9942857C133.379759 102.668076 122.848012 105.505973 113.446314 102.094041 104.044615 98.6821086 97.7841891 89.750232 97.7841891 79.7485714 97.7841891 69.7469109 104.044615 60.8150343 113.446314 57.403102 122.848012 53.9911696 133.379759 56.8290665 139.794286 64.5028571L152.045714 54.2171429C141.307254 41.3912392 123.691014 36.6555761 107.968942 42.3682614 92.2468694 48.0809467 81.779816 63.0208003 81.779816 79.7485714 81.779816 96.4763426 92.2468694 111.416196 107.968942 117.128881 123.691014 122.841567 141.307254 118.105904 152.045714 105.28L139.794286 94.9942857z"/>
    <rect width="16" height="77.714" x="322.56" y="40.914"/>
    <path d="M412.068571 94.9942857C405.654045 102.668076 395.122298 105.505973 385.720599 102.094041 376.318901 98.6821086 370.058475 89.750232 370.058475 79.7485714 370.058475 69.7469109 376.318901 60.8150343 385.720599 57.403102 395.122298 53.9911696 405.654045 56.8290665 412.068571 64.5028571L424.32 54.2171429C413.58154 41.3912392 395.9653 36.6555761 380.243227 42.3682614 364.521155 48.0809467 354.054102 63.0208003 354.054102 79.7485714 354.054102 96.4763426 364.521155 111.416196 380.243227 117.128881 395.9653 122.841567 413.58154 118.105904 424.32 105.28L412.068571 94.9942857zM298.605714 78.0342857C303.947952 71.1672369 304.928397 61.8627808 301.134813 54.0330564 297.341229 46.203332 289.431535 41.2062424 280.731429 41.1428571L245.302857 41.1428571 245.302857 57.1428571 280.731429 57.1428571C285.149707 57.1428571 288.731429 60.7245791 288.731429 65.1428571 288.731429 69.5611351 285.149707 73.1428571 280.731429 73.1428571L261.302857 73.1428571 261.302857 86.8571429 283.017143 86.8571429C287.435421 86.8571429 291.017143 90.4388649 291.017143 94.8571429 291.017143 99.2754209 287.435421 102.857143 283.017143 102.857143L245.302857 102.857143 245.302857 118.857161 284.16 118.857143C293.839942 118.869418 302.47797 112.782849 305.723279 103.663123 308.968587 94.5433964 306.117363 84.3683107 298.605714 78.2628571L298.605714 78.0342857z"/>
    <path d="M454.034286,16 L454.034286,143.542857 L16,143.542857 L16,16 L454.034286,16 Z M470.034286,0 L0,0 L0,159.542857 L470.034286,159.542857 L470.034286,0 Z"/>
  </g>
</svg>
