<svg xmlns="http://www.w3.org/2000/svg" width="120" height="120" viewBox="0 0 120 120">
  <g fill="#FFF">
    <rect width="7.5" height="36.429" x="17.7" y="18.129"/>
    <path d="M94.1142857 18.1285714L94.1142857 40.5214286C94.1200007 42.3702181 93.3881009 44.1449338 92.0808031 45.4522317 90.7735053 46.7595295 88.9987895 47.4914293 87.15 47.4857143 83.3037312 47.4857143 80.1857143 44.3676974 80.1857143 40.5214286L80.1857143 18.1285714 72.6857143 18.1285714 72.6857143 40.5214286C72.6857143 48.509833 79.1615956 54.9857143 87.15 54.9857143 95.1384044 54.9857143 101.614286 48.509833 101.614286 40.5214286L101.614286 18.1285714 94.1142857 18.1285714zM59.6571429 43.4785714C56.6503336 47.0756608 51.7135771 48.4059249 47.306531 46.8065817 42.8994849 45.2072384 39.9649101 41.0204212 39.9649101 36.3321429 39.9649101 31.6438645 42.8994849 27.4570473 47.306531 25.857704 51.7135771 24.2583608 56.6503336 25.5886249 59.6571429 29.1857143L65.4 24.3642857C60.3663469 18.3521434 52.1087342 16.1323013 44.7390128 18.8101225 37.3692915 21.4879438 32.4628602 28.4910001 32.4628602 36.3321429 32.4628602 44.1732856 37.3692915 51.176342 44.7390128 53.8541632 52.1087342 56.5319844 60.3663469 54.3121423 65.4 48.3L59.6571429 43.4785714z"/>
    <rect width="7.5" height="36.429" x="53.914" y="64.779"/>
    <path d="M95.8714286 90.1071429C92.8646193 93.7042322 87.9278628 95.0344964 83.5208167 93.4351531 79.1137706 91.8358098 76.1791958 87.6489927 76.1791958 82.9607143 76.1791958 78.2724359 79.1137706 74.0856187 83.5208167 72.4862755 87.9278628 70.8869322 92.8646193 72.2171963 95.8714286 75.8142857L101.614286 70.9928571C96.5806326 64.9807148 88.3230199 62.7608727 80.9532985 65.438694 73.5835772 68.1165152 68.6771459 75.1195716 68.6771459 82.9607143 68.6771459 90.801857 73.5835772 97.8049134 80.9532985 100.482735 88.3230199 103.160556 96.5806326 100.940714 101.614286 94.9285714L95.8714286 90.1071429zM42.6857143 82.1785714C45.2577942 78.9576286 45.7540992 74.5467805 43.9621066 70.8347958 42.170114 67.1228112 38.4076015 64.7679439 34.2857143 64.7785714L17.7 64.7785356 17.7 72.2785714 34.2857143 72.2785714C36.3567821 72.2785714 38.0357143 73.9575036 38.0357143 76.0285714 38.0357143 78.0996392 36.3567821 79.7785714 34.2857143 79.7785714L25.2 79.7785714 25.2 86.2071429 35.3785714 86.2071429C37.4496392 86.2071429 39.1285714 87.886075 39.1285714 89.9571429 39.1285714 92.0282107 37.4496392 93.7071429 35.3785714 93.7071429L17.7 93.7071429 17.7 101.207152 35.9142857 101.207143C40.4517587 101.212897 44.5008344 98.3598178 46.0220725 94.084946 47.5433107 89.8100742 46.2067998 85.0405028 42.6857143 82.1785714z"/>
    <path d="M111.835714,7.5 L111.835714,111.835714 L7.5,111.835714 L7.5,7.5 L111.835714,7.5 Z M119.335714,0 L0,0 L0,119.335714 L119.335714,119.335714 L119.335714,0 Z"/>
  </g>
</svg>
