<svg width="35" height="39" viewBox="0 0 35 39" fill="none" xmlns="http://www.w3.org/2000/svg">
<path d="M34.9114 16.2751C34.9114 7.17775 28.2736 0 20.0874 0H5.89528C2.80252 0 0 2.72287 0 5.81429V27.1504C0 30.2459 2.85517 32.5503 5.89528 32.5503H8.54526C8.9084 32.5503 9.11359 32.5651 9.11359 32.1993V9.66438C9.11359 9.29854 9.62793 9.11359 9.99242 9.11359H20.9001C20.9001 9.11359 14.5013 14.7051 14.072 15.0642C13.6427 15.4233 13.667 15.6528 13.667 16.1982V37.7733C13.667 38.4294 13.6495 38.3848 14.2151 37.9083C14.7173 37.4871 19.0574 33.8489 20.0631 32.5462H20.078C28.2574 32.5462 34.9073 25.3617 34.9073 16.2711" fill="#F5821F"/>
</svg>
