<svg width="160" height="31" viewBox="0 0 160 31" fill="none" xmlns="http://www.w3.org/2000/svg">
<path d="M27.9291 13.0201C27.9291 5.7422 22.6189 0 16.0699 0H4.71623C2.24202 0 0 2.1783 0 4.65143V21.7203C0 24.1967 2.28414 26.0402 4.71623 26.0402H6.83621C7.12672 26.0402 7.29087 26.0521 7.29087 25.7594V7.7315C7.29087 7.43883 7.70234 7.29087 7.99393 7.29087H16.7201C16.7201 7.29087 11.601 11.7641 11.2576 12.0514C10.9142 12.3387 10.9336 12.5222 10.9336 12.9586V30.2186C10.9336 30.7435 10.9196 30.7078 11.3721 30.3266C11.7738 29.9897 15.2459 27.0792 16.0505 26.037H16.0624C22.6059 26.037 27.9258 20.2894 27.9258 13.0169" fill="#F5821F"/>
<path d="M35.7211 25.1795C35.6875 25.1544 35.6602 25.1218 35.6415 25.0843C35.6227 25.0468 35.613 25.0054 35.6131 24.9635C35.6135 24.9295 35.6207 24.8959 35.6341 24.8647C35.6475 24.8335 35.667 24.8052 35.6914 24.7815C35.7157 24.7579 35.7446 24.7392 35.7762 24.7267C35.8078 24.7142 35.8415 24.7081 35.8755 24.7086C35.9284 24.7066 35.9803 24.723 36.0224 24.7551C36.3933 25.0215 36.8359 25.1698 37.2924 25.1806C37.773 25.1806 38.1219 24.9333 38.1219 24.5455V24.5304C38.1219 24.1276 37.6499 23.9721 37.1218 23.8252C36.4944 23.6459 35.7989 23.4299 35.7989 22.6945V22.6794C35.7989 21.9903 36.3712 21.5335 37.1607 21.5335C37.6083 21.5433 38.0471 21.6599 38.4405 21.8737C38.4838 21.8991 38.52 21.9351 38.5455 21.9784C38.571 22.0217 38.585 22.0708 38.5863 22.121C38.5851 22.1897 38.5569 22.2551 38.5077 22.303C38.4586 22.351 38.3925 22.3775 38.3238 22.377C38.2778 22.3769 38.2325 22.3666 38.191 22.3467C37.8769 22.1547 37.5189 22.0461 37.151 22.0314C36.679 22.0314 36.3766 22.2787 36.3766 22.6113V22.6275C36.3766 23.0077 36.8723 23.1545 37.4069 23.3176C38.0257 23.5045 38.6932 23.7431 38.6932 24.4635V24.4786C38.6932 25.2346 38.0646 25.6795 37.2665 25.6795C36.7145 25.6691 36.1782 25.4939 35.7265 25.1763" fill="white"/>
<path d="M43.3402 25.3426C43.3427 25.3827 43.3369 25.4229 43.3232 25.4607C43.3095 25.4986 43.2882 25.5332 43.2606 25.5625C43.2331 25.5918 43.1998 25.6151 43.1629 25.631C43.126 25.647 43.0862 25.6552 43.046 25.6552C43.0057 25.6552 42.9659 25.647 42.929 25.631C42.8921 25.6151 42.8588 25.5918 42.8313 25.5625C42.8037 25.5332 42.7824 25.4986 42.7687 25.4607C42.755 25.4229 42.7492 25.3827 42.7517 25.3426V24.9106C42.4806 25.3426 42.0691 25.6925 41.3812 25.6925C40.4092 25.6925 39.8476 25.0445 39.8476 24.0898V21.8651C39.846 21.8256 39.8524 21.7863 39.8665 21.7495C39.8806 21.7126 39.902 21.679 39.9295 21.6507C39.957 21.6224 39.99 21.6 40.0264 21.5849C40.0628 21.5698 40.1019 21.5622 40.1414 21.5627C40.2216 21.5627 40.2985 21.5945 40.3552 21.6512C40.4119 21.7079 40.4438 21.7849 40.4438 21.8651V23.9397C40.4438 24.6827 40.8455 25.1482 41.5518 25.1482C42.2333 25.1482 42.7517 24.6449 42.7517 23.8922V21.8651C42.75 21.8256 42.7565 21.7861 42.7706 21.7492C42.7848 21.7123 42.8063 21.6786 42.8339 21.6503C42.8615 21.622 42.8946 21.5997 42.9312 21.5846C42.9677 21.5695 43.007 21.562 43.0465 21.5627C43.0858 21.5628 43.1246 21.5708 43.1608 21.5861C43.1969 21.6015 43.2296 21.6239 43.257 21.6521C43.2844 21.6802 43.3058 21.7136 43.3201 21.7502C43.3344 21.7867 43.3413 21.8258 43.3402 21.8651V25.3426Z" fill="white"/>
<path d="M44.795 21.8651C44.795 21.786 44.8264 21.7102 44.8823 21.6543C44.9382 21.5984 45.014 21.567 45.0931 21.567C45.1721 21.567 45.2479 21.5984 45.3038 21.6543C45.3597 21.7102 45.3911 21.786 45.3911 21.8651V22.405C45.7151 21.9245 46.1892 21.5151 46.9236 21.5151C47.8859 21.5151 48.8384 22.2711 48.8384 23.5908V23.607C48.8384 24.9138 47.8934 25.6892 46.9236 25.6892C46.1806 25.6892 45.7011 25.2864 45.3911 24.8382V26.5802C45.3926 26.6196 45.3861 26.6588 45.3719 26.6956C45.3578 26.7324 45.3363 26.7659 45.3089 26.7942C45.2814 26.8225 45.2485 26.8449 45.2122 26.8601C45.1758 26.8752 45.1368 26.8829 45.0974 26.8826C45.0575 26.8832 45.0179 26.8758 44.981 26.8608C44.944 26.8458 44.9105 26.8235 44.8823 26.7953C44.8541 26.7671 44.8318 26.7336 44.8168 26.6966C44.8018 26.6597 44.7944 26.6201 44.795 26.5802V21.8651ZM48.2271 23.6157V23.5984C48.2271 22.6534 47.5791 22.0497 46.8167 22.0497C46.0542 22.0497 45.3674 22.6772 45.3674 23.5919V23.6081C45.3674 24.5369 46.0737 25.1568 46.8167 25.1568C47.591 25.1568 48.2271 24.5823 48.2271 23.6157Z" fill="white"/>
<path d="M50.0523 21.8651C50.0523 21.786 50.0837 21.7102 50.1396 21.6543C50.1955 21.5984 50.2713 21.567 50.3504 21.567C50.4294 21.567 50.5052 21.5984 50.5611 21.6543C50.617 21.7102 50.6484 21.786 50.6484 21.8651V22.405C50.9724 21.9245 51.4465 21.5151 52.1809 21.5151C53.1421 21.5151 54.0957 22.2711 54.0957 23.5908V23.607C54.0957 24.9138 53.1518 25.6892 52.1809 25.6892C51.439 25.6892 50.9584 25.2864 50.6484 24.8382V26.5802C50.6497 26.6196 50.6431 26.6589 50.6288 26.6957C50.6145 26.7325 50.593 26.766 50.5655 26.7942C50.5379 26.8225 50.505 26.8449 50.4686 26.8601C50.4321 26.8752 50.393 26.8829 50.3536 26.8826C50.3138 26.883 50.2743 26.8755 50.2375 26.8604C50.2007 26.8454 50.1673 26.8231 50.1392 26.7949C50.1111 26.7668 50.0889 26.7332 50.074 26.6964C50.0591 26.6595 50.0517 26.62 50.0523 26.5802V21.8651ZM53.4844 23.6157V23.5984C53.4844 22.6534 52.8364 22.0497 52.074 22.0497C51.3115 22.0497 50.6247 22.6772 50.6247 23.5919V23.6081C50.6247 24.5369 51.331 25.1568 52.074 25.1568C52.8483 25.1568 53.4844 24.5823 53.4844 23.6157Z" fill="white"/>
<path d="M55.3635 20.2149C55.3635 20.1358 55.3949 20.06 55.4508 20.0041C55.5067 19.9482 55.5826 19.9168 55.6616 19.9168C55.7407 19.9168 55.8165 19.9482 55.8724 20.0041C55.9283 20.06 55.9597 20.1358 55.9597 20.2149V25.3415C55.9613 25.3809 55.9549 25.4202 55.9408 25.4571C55.9267 25.4939 55.9053 25.5275 55.8778 25.5558C55.8503 25.5841 55.8173 25.6065 55.7809 25.6216C55.7445 25.6368 55.7054 25.6443 55.6659 25.6439C55.626 25.6446 55.5864 25.6373 55.5494 25.6223C55.5123 25.6074 55.4787 25.5852 55.4505 25.5569C55.4223 25.5287 55.4 25.4951 55.3851 25.4581C55.3701 25.421 55.3628 25.3814 55.3635 25.3415V20.2149Z" fill="white"/>
<path d="M57.4609 20.3456C57.4693 20.2579 57.5101 20.1765 57.5753 20.1172C57.6405 20.058 57.7254 20.0252 57.8135 20.0252C57.9016 20.0252 57.9865 20.058 58.0517 20.1172C58.1169 20.1765 58.1577 20.2579 58.1661 20.3456V20.4471C58.1577 20.5348 58.1169 20.6162 58.0517 20.6754C57.9865 20.7346 57.9016 20.7675 57.8135 20.7675C57.7254 20.7675 57.6405 20.7346 57.5753 20.6754C57.5101 20.6162 57.4693 20.5348 57.4609 20.4471V20.3456ZM57.516 21.8651C57.516 21.8259 57.5237 21.7872 57.5386 21.751C57.5536 21.7148 57.5756 21.682 57.6033 21.6543C57.6309 21.6266 57.6638 21.6047 57.7 21.5897C57.7361 21.5747 57.7749 21.567 57.814 21.567C57.8532 21.567 57.8919 21.5747 57.9281 21.5897C57.9643 21.6047 57.9971 21.6266 58.0248 21.6543C58.0525 21.682 58.0744 21.7148 58.0894 21.751C58.1044 21.7872 58.1121 21.8259 58.1121 21.8651V25.3426C58.1136 25.3819 58.107 25.4211 58.0929 25.4578C58.0787 25.4945 58.0573 25.528 58.0298 25.5562C58.0023 25.5844 57.9694 25.6067 57.9331 25.6217C57.8967 25.6368 57.8577 25.6443 57.8183 25.6439C57.7785 25.6448 57.7389 25.6376 57.7018 25.6228C57.6648 25.6079 57.6312 25.5858 57.603 25.5577C57.5747 25.5295 57.5524 25.496 57.5375 25.459C57.5225 25.422 57.5152 25.3824 57.516 25.3426V21.8651Z" fill="white"/>
<path d="M61.3649 25.7033C60.2645 25.7033 59.367 24.8598 59.367 23.6211V23.6038C59.367 22.4504 60.1791 21.5216 61.2872 21.5216C62.4752 21.5216 63.1469 22.4936 63.1469 23.5509C63.1469 23.5875 63.1396 23.6238 63.1256 23.6576C63.1115 23.6914 63.0908 23.7221 63.0648 23.7479C63.0388 23.7737 63.008 23.7941 62.9741 23.8079C62.9401 23.8218 62.9038 23.8287 62.8672 23.8284H59.9696C60.0549 24.6924 60.6673 25.1849 61.3801 25.1849C61.8113 25.1878 62.2263 25.021 62.5356 24.7205C62.5817 24.6765 62.6426 24.6515 62.7063 24.6503C62.7403 24.6499 62.7741 24.6562 62.8057 24.6688C62.8373 24.6814 62.8661 24.7002 62.8905 24.7239C62.9149 24.7477 62.9343 24.776 62.9477 24.8073C62.9612 24.8386 62.9683 24.8722 62.9687 24.9063C62.9676 24.9432 62.9588 24.9795 62.9428 25.0128C62.9268 25.0461 62.904 25.0757 62.8758 25.0996C62.6788 25.2987 62.4429 25.4551 62.1827 25.559C61.9226 25.6628 61.6438 25.712 61.3639 25.7033H61.3649ZM62.5518 23.3878C62.4892 22.6588 62.0712 22.0249 61.2731 22.0249C60.5766 22.0249 60.0485 22.6059 59.9707 23.3878H62.5518Z" fill="white"/>
<path d="M64.3154 21.8651C64.3146 21.7861 64.345 21.71 64.4 21.6533C64.455 21.5967 64.5302 21.5641 64.6092 21.5627C64.6491 21.5619 64.6887 21.5693 64.7256 21.5842C64.7626 21.5992 64.7961 21.6214 64.8243 21.6497C64.8524 21.6779 64.8746 21.7115 64.8894 21.7486C64.9042 21.7856 64.9114 21.8252 64.9105 21.8651V22.6146C65.2053 21.9493 65.7853 21.5476 66.2885 21.5476C66.3281 21.5463 66.3675 21.5533 66.4042 21.568C66.441 21.5827 66.4743 21.6048 66.5021 21.633C66.5299 21.6612 66.5515 21.6948 66.5657 21.7318C66.5799 21.7688 66.5863 21.8082 66.5845 21.8478C66.5868 21.9221 66.5609 21.9946 66.512 22.0507C66.4632 22.1068 66.3949 22.1423 66.3209 22.1502C65.5444 22.2474 64.9062 22.8252 64.9062 23.9753V25.3382C64.9086 25.3788 64.9027 25.4195 64.8889 25.4577C64.8751 25.4959 64.8535 25.5309 64.8257 25.5605C64.7978 25.5901 64.7642 25.6137 64.7269 25.6298C64.6895 25.6459 64.6493 25.6542 64.6086 25.6542C64.568 25.6542 64.5278 25.6459 64.4904 25.6298C64.4531 25.6137 64.4195 25.5901 64.3916 25.5605C64.3638 25.5309 64.3422 25.4959 64.3284 25.4577C64.3146 25.4195 64.3087 25.3788 64.3111 25.3382L64.3154 21.8651Z" fill="white"/>
<path d="M70.0047 20.2149C70.0047 20.1358 70.0361 20.06 70.092 20.0041C70.1479 19.9482 70.2237 19.9168 70.3028 19.9168C70.3818 19.9168 70.4576 19.9482 70.5135 20.0041C70.5694 20.06 70.6008 20.1358 70.6008 20.2149V22.4061C70.9248 21.9255 71.4 21.5162 72.1344 21.5162C73.0956 21.5162 74.0492 22.2722 74.0492 23.5919V23.6081C74.0492 24.9149 73.1031 25.6903 72.1344 25.6903C71.3914 25.6903 70.9097 25.2875 70.6008 24.8393V25.3426C70.6018 25.3817 70.595 25.4207 70.5808 25.4572C70.5666 25.4937 70.5452 25.527 70.518 25.5552C70.4907 25.5833 70.4581 25.6058 70.4221 25.6212C70.3861 25.6366 70.3474 25.6447 70.3082 25.645C70.2684 25.6451 70.2289 25.6374 70.1921 25.6222C70.1553 25.6071 70.1218 25.5849 70.0936 25.5568C70.0655 25.5287 70.0431 25.4953 70.0278 25.4585C70.0126 25.4218 70.0047 25.3824 70.0047 25.3426V20.2149ZM73.4379 23.6157V23.5984C73.4379 22.6534 72.7899 22.0497 72.0275 22.0497C71.2845 22.0497 70.5782 22.6772 70.5782 23.5919V23.6081C70.5782 24.5369 71.2845 25.1568 72.0275 25.1568C72.8029 25.1568 73.4379 24.5823 73.4379 23.6157Z" fill="white"/>
<path d="M77.0126 25.7033C75.9121 25.7033 75.0136 24.8598 75.0136 23.6211V23.6038C75.0136 22.4504 75.8268 21.5216 76.9349 21.5216C78.1228 21.5216 78.7946 22.4936 78.7946 23.5509C78.7946 23.5875 78.7873 23.6238 78.7732 23.6576C78.7592 23.6914 78.7385 23.7221 78.7125 23.7479C78.6865 23.7737 78.6557 23.7941 78.6217 23.8079C78.5878 23.8218 78.5515 23.8287 78.5149 23.8284H75.6184C75.7037 24.6924 76.315 25.1849 77.0224 25.1849C77.4533 25.1883 77.8683 25.0214 78.1768 24.7205C78.2233 24.6772 78.284 24.6523 78.3475 24.6503C78.4005 24.6484 78.4527 24.6632 78.4968 24.6925C78.541 24.7218 78.5749 24.7643 78.5937 24.8138C78.6125 24.8634 78.6153 24.9176 78.6018 24.9688C78.5882 25.0201 78.559 25.0658 78.5181 25.0996C78.3211 25.2987 78.0852 25.4551 77.825 25.559C77.5649 25.6628 77.2861 25.712 77.0061 25.7033H77.0126ZM78.1941 23.3878C78.1326 22.6588 77.7135 22.0249 76.9154 22.0249C76.2199 22.0249 75.6918 22.6059 75.6195 23.3878H78.1941Z" fill="white"/>
<path d="M79.962 21.8651C79.962 21.8259 79.9697 21.7872 79.9847 21.751C79.9997 21.7148 80.0216 21.682 80.0493 21.6543C80.077 21.6266 80.1098 21.6047 80.146 21.5897C80.1822 21.5747 80.2209 21.567 80.2601 21.567C80.2992 21.567 80.338 21.5747 80.3741 21.5897C80.4103 21.6047 80.4432 21.6266 80.4709 21.6543C80.4985 21.682 80.5205 21.7148 80.5355 21.751C80.5504 21.7872 80.5582 21.8259 80.5582 21.8651V22.6146C80.853 21.9493 81.434 21.5476 81.9373 21.5476C81.9767 21.5463 82.016 21.5533 82.0527 21.568C82.0893 21.5827 82.1225 21.6049 82.1501 21.6331C82.1777 21.6614 82.1992 21.695 82.2131 21.732C82.227 21.7689 82.2331 21.8084 82.231 21.8478C82.2336 21.922 82.208 21.9945 82.1593 22.0506C82.1106 22.1067 82.0425 22.1423 81.9686 22.1502C81.1943 22.2441 80.5582 22.8252 80.5582 23.9796V25.3426C80.5582 25.4216 80.5268 25.4974 80.4709 25.5533C80.415 25.6092 80.3391 25.6406 80.2601 25.6406C80.181 25.6406 80.1052 25.6092 80.0493 25.5533C79.9934 25.4974 79.962 25.4216 79.962 25.3426V21.8651Z" fill="white"/>
<path d="M82.9967 25.1795C82.9634 25.1542 82.9363 25.1215 82.9176 25.0841C82.8988 25.0466 82.889 25.0054 82.8887 24.9635C82.8902 24.8948 82.9186 24.8295 82.968 24.7818C83.0174 24.7341 83.0836 24.7078 83.1522 24.7086C83.2054 24.7066 83.2577 24.723 83.3002 24.7551C83.671 25.0223 84.1143 25.1707 84.5713 25.1806C85.0498 25.1806 85.3986 24.9333 85.3986 24.5455V24.5304C85.3986 24.1276 84.9266 23.9721 84.3996 23.8252C83.7721 23.6459 83.0745 23.4299 83.0745 22.6945V22.6794C83.0745 21.9903 83.6479 21.5335 84.4396 21.5335C84.8859 21.5429 85.3233 21.6595 85.715 21.8737C85.7594 21.8982 85.7966 21.9339 85.8227 21.9774C85.8489 22.0208 85.8631 22.0703 85.864 22.121C85.8626 22.1898 85.8342 22.2552 85.7848 22.3031C85.7355 22.351 85.6693 22.3776 85.6005 22.377C85.5546 22.3764 85.5093 22.3661 85.4677 22.3467C85.1518 22.1559 84.7922 22.0492 84.4234 22.0368C83.9503 22.0368 83.6479 22.2841 83.6479 22.6167V22.6329C83.6479 23.0131 84.1437 23.1599 84.6793 23.323C85.2981 23.5099 85.9645 23.7485 85.9645 24.4689V24.484C85.9645 25.24 85.337 25.6849 84.5389 25.6849C83.9865 25.6745 83.4499 25.4992 82.9978 25.1817" fill="white"/>
<path d="M86.8835 24.444V24.4289C86.8835 23.5844 87.5812 23.1329 88.5953 23.1329C89.0118 23.1292 89.4266 23.1867 89.8265 23.3036V23.1632C89.8265 22.4439 89.3858 22.0724 88.6385 22.0724C88.2805 22.0725 87.9266 22.1491 87.6006 22.2971C87.5663 22.3111 87.5297 22.3187 87.4926 22.3197C87.4244 22.3195 87.3589 22.2928 87.31 22.2453C87.2611 22.1977 87.2325 22.133 87.2302 22.0649C87.2303 22.0122 87.2457 21.9607 87.2744 21.9167C87.3032 21.8726 87.3441 21.8378 87.3922 21.8165C87.8042 21.6339 88.2505 21.5419 88.7011 21.5465C89.267 21.5465 89.7012 21.6923 89.9971 21.9871C90.2682 22.2571 90.4086 22.6448 90.4086 23.1567V25.349C90.41 25.3875 90.4037 25.4258 90.3898 25.4617C90.376 25.4975 90.355 25.5302 90.3281 25.5577C90.3012 25.5852 90.269 25.6069 90.2335 25.6216C90.1979 25.6362 90.1597 25.6434 90.1213 25.6428C90.0838 25.6446 90.0464 25.6386 90.0113 25.6254C89.9762 25.6121 89.9442 25.5918 89.9173 25.5657C89.8904 25.5396 89.8691 25.5082 89.8548 25.4736C89.8405 25.4389 89.8334 25.4017 89.834 25.3642V25.0013C89.6648 25.2229 89.4451 25.4009 89.1932 25.5206C88.9413 25.6402 88.6645 25.698 88.3858 25.6892C87.6417 25.6892 86.8911 25.2637 86.8911 24.4429L86.8835 24.444ZM89.8416 24.133V23.7453C89.4594 23.6323 89.063 23.5749 88.6644 23.5747C87.9138 23.5747 87.4948 23.8986 87.4948 24.4041V24.4192C87.4948 24.9225 87.9603 25.2173 88.5024 25.2173C89.239 25.2173 89.8416 24.768 89.8416 24.1373" fill="white"/>
<path d="M91.7845 20.2149C91.7845 20.1358 91.8159 20.06 91.8718 20.0041C91.9277 19.9482 92.0035 19.9168 92.0825 19.9168C92.1616 19.9168 92.2374 19.9482 92.2933 20.0041C92.3492 20.06 92.3806 20.1358 92.3806 20.2149V22.2981C92.5156 22.0547 92.715 21.853 92.9569 21.7151C93.1987 21.5772 93.4738 21.5084 93.7522 21.5162C94.7241 21.5162 95.2857 22.1642 95.2857 23.1189V25.3415C95.2857 25.3806 95.278 25.4194 95.263 25.4556C95.248 25.4917 95.2261 25.5246 95.1984 25.5523C95.1707 25.5799 95.1379 25.6019 95.1017 25.6169C95.0655 25.6318 95.0268 25.6396 94.9876 25.6396C94.9485 25.6396 94.9097 25.6318 94.8736 25.6169C94.8374 25.6019 94.8046 25.5799 94.7769 25.5523C94.7492 25.5246 94.7272 25.4917 94.7123 25.4556C94.6973 25.4194 94.6896 25.3806 94.6896 25.3415V23.2658C94.6896 22.5228 94.2867 22.0584 93.5826 22.0584C92.8785 22.0584 92.3806 22.5616 92.3806 23.3133V25.3415C92.3824 25.3808 92.3761 25.4201 92.3621 25.457C92.3482 25.4938 92.3268 25.5274 92.2994 25.5558C92.272 25.5841 92.2391 25.6065 92.2028 25.6216C92.1664 25.6368 92.1273 25.6444 92.0879 25.6439C92.048 25.6446 92.0083 25.6373 91.9712 25.6224C91.9341 25.6074 91.9004 25.5852 91.8721 25.557C91.8438 25.5288 91.8214 25.4952 91.8064 25.4581C91.7913 25.4211 91.7839 25.3814 91.7845 25.3415V20.2149Z" fill="white"/>
<path d="M96.3678 24.444V24.4289C96.3678 23.5844 97.0655 23.1329 98.0796 23.1329C98.4968 23.1294 98.9123 23.1869 99.3129 23.3036V23.1632C99.3129 22.4439 98.869 22.0724 98.1185 22.0724C97.7605 22.0728 97.4067 22.1493 97.0806 22.2971C97.0463 22.3111 97.0097 22.3187 96.9726 22.3197C96.9046 22.3192 96.8394 22.2924 96.7907 22.2449C96.7419 22.1974 96.7135 22.1329 96.7113 22.0649C96.7113 22.0121 96.7266 21.9604 96.7553 21.9161C96.7841 21.8719 96.825 21.8369 96.8733 21.8154C97.2853 21.6331 97.7316 21.541 98.1822 21.5454C98.747 21.5454 99.1811 21.6912 99.4781 21.986C99.7481 22.256 99.8885 22.6437 99.8885 23.1556V25.348C99.89 25.3864 99.8836 25.4247 99.8698 25.4606C99.856 25.4965 99.835 25.5291 99.8081 25.5566C99.7812 25.5841 99.749 25.6058 99.7134 25.6205C99.6779 25.6351 99.6397 25.6423 99.6013 25.6417C99.5639 25.6433 99.5267 25.6373 99.4918 25.624C99.4569 25.6106 99.4251 25.5903 99.3983 25.5642C99.3716 25.538 99.3505 25.5067 99.3364 25.4721C99.3223 25.4376 99.3154 25.4004 99.3161 25.3631V25.0002C99.1463 25.2215 98.9264 25.3993 98.6744 25.5189C98.4224 25.6385 98.1456 25.6965 97.8668 25.6882C97.1227 25.6882 96.3711 25.2626 96.3711 24.4419L96.3678 24.444ZM99.3226 24.1319V23.7442C98.9404 23.6313 98.544 23.5739 98.1455 23.5736C97.3895 23.5736 96.9748 23.8976 96.9748 24.403V24.4181C96.9748 24.9214 97.4402 25.2162 97.9824 25.2162C98.72 25.2162 99.3226 24.7669 99.3226 24.1362" fill="white"/>
<path d="M101.27 20.2149C101.27 20.1358 101.301 20.06 101.357 20.0041C101.413 19.9482 101.489 19.9168 101.568 19.9168C101.647 19.9168 101.723 19.9482 101.779 20.0041C101.835 20.06 101.866 20.1358 101.866 20.2149V22.4061C102.19 21.9255 102.664 21.5162 103.4 21.5162C104.361 21.5162 105.313 22.2722 105.313 23.5919V23.6081C105.313 24.9149 104.368 25.6903 103.4 25.6903C102.657 25.6903 102.175 25.2875 101.866 24.8393V25.3426C101.867 25.3818 101.86 25.4208 101.846 25.4573C101.831 25.4938 101.81 25.5271 101.782 25.5552C101.755 25.5834 101.722 25.6058 101.686 25.6212C101.65 25.6366 101.611 25.6447 101.572 25.645C101.492 25.645 101.415 25.6131 101.358 25.5564C101.302 25.4997 101.27 25.4228 101.27 25.3426V20.2149ZM104.702 23.6157V23.5984C104.702 22.6534 104.054 22.0497 103.29 22.0497C102.549 22.0497 101.842 22.6772 101.842 23.5919V23.6081C101.842 24.5369 102.549 25.1568 103.29 25.1568C104.066 25.1568 104.702 24.5823 104.702 23.6157Z" fill="white"/>
<path d="M106.225 24.444V24.4289C106.225 23.5844 106.922 23.1329 107.936 23.1329C108.353 23.1292 108.769 23.1867 109.169 23.3036V23.1632C109.169 22.4439 108.727 22.0724 107.975 22.0724C107.618 22.0725 107.264 22.1491 106.939 22.2971C106.904 22.3109 106.868 22.3185 106.831 22.3197C106.762 22.3195 106.697 22.2928 106.648 22.2453C106.598 22.1978 106.57 22.1331 106.567 22.0649C106.567 22.0123 106.583 21.9608 106.611 21.9168C106.64 21.8727 106.681 21.8379 106.729 21.8165C107.141 21.6342 107.587 21.5421 108.038 21.5465C108.604 21.5465 109.038 21.6923 109.334 21.9871C109.606 22.2571 109.744 22.6448 109.744 23.1567V25.349C109.746 25.3874 109.74 25.4257 109.726 25.4616C109.712 25.4975 109.691 25.5302 109.665 25.5577C109.638 25.5852 109.606 25.6069 109.57 25.6216C109.535 25.6362 109.497 25.6434 109.458 25.6428C109.421 25.6444 109.383 25.6384 109.348 25.6251C109.314 25.6117 109.282 25.5914 109.255 25.5653C109.228 25.5392 109.207 25.5079 109.193 25.4733C109.178 25.4387 109.171 25.4016 109.172 25.3642V25.0013C109.002 25.2227 108.783 25.4006 108.531 25.5202C108.279 25.6398 108.002 25.6978 107.724 25.6892C106.981 25.6892 106.228 25.2637 106.228 24.443L106.225 24.444ZM109.181 24.133V23.7453C108.796 23.6323 108.398 23.5752 107.997 23.5757C107.246 23.5757 106.827 23.8997 106.827 24.4052V24.4203C106.827 24.9235 107.292 25.2184 107.834 25.2184C108.57 25.2184 109.175 24.7691 109.175 24.1384" fill="white"/>
<path d="M111.297 24.5445V22.1275H110.973C110.904 22.1253 110.839 22.097 110.79 22.0483C110.741 21.9996 110.712 21.9341 110.71 21.8651C110.71 21.7952 110.738 21.7284 110.788 21.679C110.837 21.6295 110.904 21.6013 110.973 21.6005H111.297V20.6555C111.296 20.6162 111.303 20.5772 111.317 20.5406C111.332 20.504 111.353 20.4707 111.381 20.4425C111.408 20.4143 111.441 20.3919 111.477 20.3766C111.513 20.3612 111.552 20.3532 111.591 20.3531C111.671 20.3545 111.747 20.3868 111.803 20.4432C111.86 20.4996 111.892 20.5757 111.893 20.6555V21.5994H112.93C113.001 21.5999 113.069 21.6278 113.119 21.6771C113.17 21.7264 113.199 21.7934 113.201 21.864C113.2 21.9346 113.171 22.0019 113.12 22.051C113.069 22.1002 113.001 22.1273 112.93 22.1264H111.893V24.4656C111.893 24.9527 112.165 25.132 112.566 25.132C112.689 25.1275 112.811 25.1098 112.93 25.0791C112.998 25.0791 113.063 25.1057 113.11 25.1533C113.158 25.2008 113.186 25.2653 113.186 25.3328C113.186 25.3846 113.169 25.4349 113.138 25.4767C113.108 25.5185 113.065 25.5498 113.016 25.5661C112.828 25.6405 112.628 25.6772 112.427 25.6741C111.779 25.6741 111.297 25.3501 111.297 24.5434" fill="white"/>
<path d="M114.114 26.2433C114.432 26.1039 114.564 25.9096 114.546 25.6082C114.46 25.5915 114.382 25.5448 114.327 25.4764C114.272 25.408 114.243 25.3224 114.245 25.2346V25.1093C114.243 25.0623 114.252 25.0155 114.269 24.9718C114.286 24.928 114.312 24.8883 114.346 24.8551C114.379 24.8218 114.419 24.7957 114.462 24.7783C114.506 24.7609 114.553 24.7526 114.6 24.754C114.826 24.754 114.981 24.9246 114.981 25.1795V25.3274C114.981 25.7918 114.88 26.078 114.701 26.2562C114.56 26.4037 114.376 26.5014 114.174 26.5349C114.153 26.5369 114.132 26.5344 114.112 26.5274C114.092 26.5205 114.073 26.5093 114.058 26.4947C114.043 26.48 114.031 26.4622 114.023 26.4425C114.015 26.4228 114.011 26.4016 114.012 26.3804C114.013 26.3498 114.023 26.3201 114.04 26.2952C114.058 26.2703 114.083 26.2514 114.112 26.2411" fill="white"/>
<path d="M118.784 20.2149C118.784 20.1358 118.815 20.06 118.871 20.0041C118.927 19.9482 119.003 19.9168 119.082 19.9168C119.161 19.9168 119.237 19.9482 119.293 20.0041C119.348 20.06 119.38 20.1358 119.38 20.2149V22.2981C119.515 22.0545 119.714 21.8527 119.956 21.7147C120.198 21.5768 120.473 21.5082 120.751 21.5162C121.723 21.5162 122.284 22.1642 122.284 23.1189V25.3415C122.286 25.3821 122.28 25.4227 122.267 25.4609C122.253 25.4992 122.231 25.5341 122.203 25.5637C122.175 25.5933 122.142 25.6169 122.105 25.6331C122.067 25.6492 122.027 25.6575 121.986 25.6575C121.946 25.6575 121.905 25.6492 121.868 25.6331C121.831 25.6169 121.797 25.5933 121.769 25.5637C121.741 25.5341 121.72 25.4992 121.706 25.4609C121.692 25.4227 121.686 25.3821 121.689 25.3415V23.2658C121.689 22.5228 121.286 22.0584 120.581 22.0584C119.876 22.0584 119.38 22.5616 119.38 23.3133V25.3415C119.381 25.3809 119.375 25.4202 119.361 25.4571C119.347 25.4939 119.325 25.5275 119.298 25.5558C119.27 25.5841 119.237 25.6065 119.201 25.6216C119.165 25.6368 119.126 25.6443 119.086 25.6439C119.046 25.6446 119.007 25.6373 118.969 25.6223C118.932 25.6074 118.899 25.5852 118.871 25.5569C118.842 25.5287 118.82 25.4951 118.805 25.4581C118.79 25.421 118.783 25.3814 118.784 25.3415V20.2149Z" fill="white"/>
<path d="M123.367 24.444V24.4289C123.367 23.5844 124.066 23.1329 125.08 23.1329C125.496 23.1292 125.911 23.1867 126.311 23.3036V23.1632C126.311 22.4439 125.87 22.0724 125.123 22.0724C124.765 22.0727 124.411 22.1492 124.084 22.2971C124.05 22.3112 124.013 22.3189 123.976 22.3197C123.908 22.3198 123.842 22.2932 123.792 22.2457C123.743 22.1982 123.714 22.1333 123.712 22.0649C123.712 22.0122 123.727 21.9606 123.755 21.9164C123.784 21.8721 123.824 21.837 123.872 21.8154C124.284 21.6327 124.731 21.5407 125.181 21.5454C125.747 21.5454 126.18 21.6912 126.477 21.986C126.748 22.256 126.887 22.6437 126.887 23.1556V25.348C126.888 25.3863 126.882 25.4246 126.868 25.4605C126.855 25.4964 126.834 25.5291 126.807 25.5566C126.78 25.5841 126.748 25.6058 126.713 25.6205C126.677 25.6351 126.639 25.6423 126.601 25.6417C126.563 25.6433 126.526 25.6373 126.491 25.624C126.456 25.6106 126.424 25.5903 126.397 25.5642C126.37 25.5381 126.349 25.5068 126.335 25.4722C126.321 25.4376 126.314 25.4005 126.314 25.3631V25.0002C126.145 25.2216 125.925 25.3994 125.673 25.519C125.421 25.6386 125.145 25.6966 124.866 25.6882C124.122 25.6882 123.37 25.2626 123.37 24.4419L123.367 24.444ZM126.322 24.1319V23.7442C125.939 23.6313 125.543 23.5738 125.144 23.5736C124.388 23.5736 123.975 23.8976 123.975 24.403V24.4181C123.975 24.9214 124.439 25.2162 124.983 25.2162C125.717 25.2162 126.322 24.7669 126.322 24.1362" fill="white"/>
<path d="M128.269 21.8651C128.268 21.7859 128.299 21.7096 128.354 21.653C128.409 21.5963 128.485 21.5638 128.564 21.5627C128.604 21.5619 128.643 21.5693 128.68 21.5842C128.717 21.5992 128.751 21.6214 128.779 21.6497C128.807 21.6779 128.829 21.7115 128.844 21.7486C128.859 21.7856 128.866 21.8252 128.865 21.8651V22.6146C129.16 21.9493 129.74 21.5476 130.243 21.5476C130.283 21.5462 130.322 21.553 130.359 21.5677C130.396 21.5823 130.429 21.6044 130.457 21.6327C130.485 21.6609 130.507 21.6946 130.521 21.7316C130.535 21.7686 130.541 21.8082 130.539 21.8478C130.541 21.9221 130.516 21.9946 130.467 22.0507C130.418 22.1068 130.35 22.1423 130.276 22.1502C129.5 22.2441 128.865 22.8252 128.865 23.9796V25.3426C128.865 25.4216 128.834 25.4974 128.778 25.5533C128.722 25.6092 128.646 25.6406 128.567 25.6406C128.488 25.6406 128.412 25.6092 128.356 25.5533C128.3 25.4974 128.269 25.4216 128.269 25.3426V21.8651Z" fill="white"/>
<path d="M131.458 26.3891C131.412 26.366 131.373 26.3304 131.346 26.2863C131.318 26.2422 131.304 26.1914 131.304 26.1396C131.309 26.0702 131.34 26.0052 131.389 25.9569C131.439 25.9085 131.505 25.8801 131.575 25.8771C131.622 25.8767 131.668 25.8902 131.707 25.916C132.126 26.1984 132.619 26.3489 133.125 26.348C134.007 26.348 134.58 25.8588 134.58 24.9225V24.4505C134.232 24.9149 133.743 25.2961 133.008 25.2961C132.048 25.2961 131.126 24.5758 131.126 23.4213V23.4051C131.122 23.1565 131.167 22.9096 131.26 22.679C131.354 22.4484 131.492 22.2388 131.667 22.0627C131.843 21.8866 132.052 21.7475 132.282 21.6536C132.513 21.5597 132.759 21.513 133.008 21.5162C133.314 21.5124 133.617 21.5836 133.89 21.7237C134.162 21.8637 134.396 22.0684 134.572 22.3197V21.864C134.571 21.8246 134.578 21.7854 134.593 21.7488C134.607 21.7122 134.629 21.6789 134.657 21.6509C134.685 21.6228 134.718 21.6005 134.754 21.5854C134.79 21.5702 134.829 21.5625 134.869 21.5627C134.949 21.563 135.025 21.5948 135.081 21.6513C135.137 21.7078 135.169 21.7843 135.169 21.864V24.9084C135.169 25.5283 134.984 26.0003 134.658 26.3253C134.302 26.6806 133.767 26.8653 133.132 26.8653C132.541 26.8687 131.961 26.7055 131.458 26.3945V26.3891ZM134.59 23.4191V23.4029C134.59 22.5822 133.877 22.0476 133.119 22.0476C132.361 22.0476 131.731 22.5746 131.731 23.3954V23.4105C131.73 23.5919 131.766 23.7717 131.835 23.9393C131.905 24.1068 132.008 24.2586 132.137 24.3858C132.266 24.513 132.42 24.6129 132.589 24.6797C132.757 24.7465 132.938 24.7787 133.119 24.7745C133.875 24.7745 134.59 24.2237 134.59 23.4191" fill="white"/>
<path d="M136.314 24.444V24.4289C136.314 23.5844 137.01 23.1329 138.026 23.1329C138.442 23.1292 138.857 23.1867 139.257 23.3036V23.1632C139.257 22.4439 138.816 22.0724 138.069 22.0724C137.711 22.0727 137.357 22.1493 137.031 22.2971C136.997 22.3111 136.96 22.3187 136.923 22.3197C136.855 22.3195 136.789 22.2928 136.74 22.2453C136.691 22.1978 136.662 22.1331 136.659 22.0649C136.66 22.0121 136.675 21.9605 136.704 21.9164C136.733 21.8723 136.774 21.8376 136.822 21.8165C137.234 21.6339 137.681 21.5419 138.131 21.5465C138.697 21.5465 139.131 21.6923 139.427 21.9871C139.699 22.2571 139.839 22.6448 139.839 23.1567V25.349C139.84 25.3875 139.834 25.4258 139.82 25.4617C139.806 25.4975 139.785 25.5302 139.758 25.5577C139.731 25.5852 139.699 25.6069 139.664 25.6216C139.628 25.6362 139.59 25.6434 139.552 25.6428C139.514 25.6444 139.477 25.6384 139.442 25.6251C139.407 25.6117 139.375 25.5914 139.348 25.5653C139.321 25.5392 139.3 25.5079 139.286 25.4733C139.272 25.4387 139.265 25.4016 139.265 25.3642V25.0013C139.096 25.2228 138.876 25.4007 138.624 25.5203C138.372 25.64 138.095 25.6979 137.816 25.6892C137.073 25.6892 136.322 25.2637 136.322 24.4429L136.314 24.444ZM139.272 24.133V23.7453C138.89 23.6322 138.494 23.5747 138.096 23.5747C137.34 23.5747 136.926 23.8986 136.926 24.4041V24.4192C136.926 24.9225 137.392 25.2173 137.933 25.2173C138.669 25.2173 139.272 24.768 139.272 24.1373" fill="white"/>
<path d="M143.212 26.8599C143.042 26.8513 142.91 26.7671 142.91 26.6051C142.91 26.5394 142.936 26.4763 142.983 26.4298C143.029 26.3832 143.092 26.3569 143.158 26.3567C143.204 26.3567 143.249 26.3653 143.288 26.3653C143.538 26.3653 143.708 26.2022 143.708 25.8545V21.8651C143.706 21.8245 143.712 21.7838 143.726 21.7456C143.739 21.7074 143.761 21.6724 143.789 21.6428C143.817 21.6132 143.85 21.5896 143.888 21.5735C143.925 21.5574 143.965 21.5491 144.006 21.5491C144.047 21.5491 144.087 21.5574 144.124 21.5735C144.161 21.5896 144.195 21.6132 144.223 21.6428C144.251 21.6724 144.272 21.7074 144.286 21.7456C144.3 21.7838 144.306 21.8245 144.303 21.8651V25.8383C144.303 26.5424 143.932 26.8675 143.351 26.8675C143.304 26.8692 143.258 26.8667 143.212 26.8599V26.8599ZM143.653 20.3456C143.662 20.2579 143.702 20.1765 143.768 20.1172C143.833 20.058 143.918 20.0252 144.006 20.0252C144.094 20.0252 144.179 20.058 144.244 20.1172C144.309 20.1765 144.35 20.2579 144.358 20.3456V20.4471C144.35 20.5348 144.309 20.6162 144.244 20.6754C144.179 20.7346 144.094 20.7675 144.006 20.7675C143.918 20.7675 143.833 20.7346 143.768 20.6754C143.702 20.6162 143.662 20.5348 143.653 20.4471V20.3456Z" fill="white"/>
<path d="M149.238 25.3426C149.238 25.4208 149.207 25.4957 149.151 25.551C149.096 25.6063 149.021 25.6374 148.943 25.6374C148.865 25.6374 148.79 25.6063 148.734 25.551C148.679 25.4957 148.648 25.4208 148.648 25.3426V24.9106C148.377 25.3426 147.967 25.6925 147.278 25.6925C146.306 25.6925 145.744 25.0445 145.744 24.0898V21.8651C145.742 21.8256 145.749 21.7861 145.763 21.7492C145.777 21.7123 145.799 21.6786 145.826 21.6503C145.854 21.622 145.887 21.5997 145.924 21.5846C145.96 21.5695 145.999 21.562 146.039 21.5627C146.079 21.5627 146.118 21.5705 146.154 21.5857C146.191 21.6009 146.224 21.6232 146.252 21.6513C146.28 21.6794 146.302 21.7127 146.318 21.7494C146.333 21.7861 146.34 21.8254 146.34 21.8651V23.9397C146.34 24.6827 146.743 25.1482 147.447 25.1482C148.13 25.1482 148.648 24.6449 148.648 23.8922V21.8651C148.647 21.8256 148.653 21.7862 148.667 21.7494C148.682 21.7125 148.703 21.679 148.731 21.6507C148.758 21.6224 148.791 21.6 148.828 21.5849C148.864 21.5698 148.903 21.5622 148.943 21.5627C148.982 21.5627 149.021 21.5705 149.057 21.5858C149.094 21.6011 149.127 21.6235 149.154 21.6517C149.182 21.6799 149.203 21.7133 149.217 21.7499C149.232 21.7866 149.239 21.8257 149.238 21.8651V25.3426Z" fill="white"/>
<path d="M150.25 26.8599C150.079 26.8513 149.947 26.767 149.947 26.6051C149.948 26.5393 149.974 26.4762 150.02 26.4297C150.067 26.3832 150.13 26.3569 150.196 26.3567C150.242 26.3567 150.29 26.3653 150.327 26.3653C150.575 26.3653 150.745 26.2022 150.745 25.8545V21.8651C150.743 21.8243 150.749 21.7835 150.763 21.7452C150.777 21.7068 150.798 21.6717 150.826 21.642C150.854 21.6123 150.888 21.5886 150.925 21.5725C150.963 21.5563 151.003 21.5479 151.044 21.5479C151.085 21.5479 151.125 21.5563 151.163 21.5725C151.2 21.5886 151.234 21.6123 151.262 21.642C151.29 21.6717 151.311 21.7068 151.325 21.7452C151.339 21.7835 151.345 21.8243 151.343 21.8651V25.8383C151.343 26.5424 150.97 26.8675 150.39 26.8675C150.343 26.8691 150.296 26.8666 150.25 26.8599V26.8599ZM150.691 20.3456C150.7 20.2579 150.741 20.1765 150.806 20.1172C150.871 20.058 150.956 20.0252 151.044 20.0252C151.132 20.0252 151.217 20.058 151.282 20.1172C151.347 20.1765 151.388 20.2579 151.397 20.3456V20.4471C151.388 20.5348 151.347 20.6162 151.282 20.6754C151.217 20.7346 151.132 20.7675 151.044 20.7675C150.956 20.7675 150.871 20.7346 150.806 20.6754C150.741 20.6162 150.7 20.5348 150.691 20.4471V20.3456Z" fill="white"/>
<path d="M156.272 25.3426C156.272 25.4208 156.241 25.4957 156.185 25.551C156.13 25.6063 156.055 25.6374 155.977 25.6374C155.899 25.6374 155.824 25.6063 155.768 25.551C155.713 25.4957 155.682 25.4208 155.682 25.3426V24.9106C155.412 25.3426 155.002 25.6925 154.311 25.6925C153.339 25.6925 152.778 25.0445 152.778 24.0898V21.8651C152.776 21.8257 152.782 21.7864 152.796 21.7496C152.81 21.7127 152.832 21.6791 152.859 21.6508C152.886 21.6225 152.919 21.6001 152.956 21.5849C152.992 21.5698 153.031 21.5622 153.071 21.5627C153.11 21.5625 153.15 21.5702 153.187 21.5854C153.223 21.6005 153.257 21.6228 153.285 21.6509C153.313 21.6789 153.336 21.7123 153.351 21.7491C153.366 21.7858 153.374 21.8253 153.374 21.8651V23.9397C153.374 24.6827 153.777 25.1482 154.482 25.1482C155.164 25.1482 155.682 24.6449 155.682 23.8922V21.8651C155.68 21.8256 155.687 21.7861 155.701 21.7492C155.715 21.7123 155.737 21.6786 155.764 21.6503C155.792 21.622 155.825 21.5997 155.861 21.5846C155.898 21.5695 155.937 21.562 155.977 21.5627C156.016 21.5628 156.055 21.5708 156.091 21.5861C156.127 21.6014 156.16 21.6238 156.188 21.652C156.215 21.6802 156.237 21.7135 156.251 21.7501C156.265 21.7867 156.272 21.8258 156.272 21.8651V25.3426Z" fill="white"/>
<path d="M157.73 21.8651C157.729 21.786 157.76 21.7099 157.815 21.6533C157.87 21.5966 157.945 21.5641 158.024 21.5627C158.064 21.5621 158.104 21.5695 158.14 21.5845C158.177 21.5995 158.211 21.6218 158.239 21.6501C158.267 21.6783 158.289 21.7119 158.304 21.7488C158.318 21.7858 158.325 21.8253 158.325 21.8651V22.6146C158.621 21.9493 159.2 21.5476 159.704 21.5476C159.743 21.5462 159.783 21.553 159.82 21.5677C159.856 21.5823 159.89 21.6044 159.918 21.6327C159.945 21.6609 159.967 21.6946 159.981 21.7316C159.995 21.7686 160.002 21.8082 160 21.8478C160.002 21.9221 159.976 21.9946 159.927 22.0507C159.878 22.1068 159.81 22.1423 159.736 22.1502C158.962 22.2441 158.325 22.8252 158.325 23.9796V25.3426C158.327 25.3831 158.321 25.4238 158.307 25.462C158.293 25.5002 158.272 25.5352 158.244 25.5648C158.216 25.5944 158.183 25.618 158.145 25.6341C158.108 25.6503 158.068 25.6586 158.027 25.6586C157.986 25.6586 157.946 25.6503 157.909 25.6341C157.872 25.618 157.838 25.5944 157.81 25.5648C157.782 25.5352 157.761 25.5002 157.747 25.462C157.733 25.4238 157.727 25.3831 157.73 25.3426V21.8651Z" fill="white"/>
<path d="M36.2524 6.69581C36.2516 6.55054 36.2796 6.40656 36.3349 6.27223C36.3902 6.13791 36.4717 6.01594 36.5747 5.91342C36.6776 5.8109 36.7999 5.72988 36.9344 5.67508C37.069 5.62029 37.2131 5.59281 37.3583 5.59424H40.1749C43.337 5.59424 45.5207 7.7639 45.5207 10.5956V10.6237C45.5207 13.4575 43.337 15.6552 40.1749 15.6552H37.3583C37.2127 15.6565 37.0683 15.6288 36.9336 15.5737C36.7988 15.5186 36.6764 15.4372 36.5734 15.3342C36.4705 15.2313 36.3891 15.1088 36.334 14.9741C36.2788 14.8393 36.2511 14.6949 36.2524 14.5493V6.69581ZM40.1749 13.6584C41.9849 13.6584 43.2074 12.4358 43.2074 10.6539V10.6237C43.2074 8.84279 41.9849 7.59003 40.1749 7.59003H38.4653V13.6584H40.1749ZM47.4733 11.3397V6.61373C47.4733 6.32015 47.5899 6.03859 47.7975 5.83099C48.0051 5.62339 48.2867 5.50676 48.5803 5.50676C48.8739 5.50676 49.1554 5.62339 49.363 5.83099C49.5706 6.03859 49.6872 6.32015 49.6872 6.61373V11.2857C49.6872 12.9251 50.5069 13.7696 51.858 13.7696C53.209 13.7696 54.0287 12.9488 54.0287 11.3548V6.61373C54.0287 6.32015 54.1453 6.03859 54.3529 5.83099C54.5605 5.62339 54.8421 5.50676 55.1357 5.50676C55.4293 5.50676 55.7108 5.62339 55.9184 5.83099C56.126 6.03859 56.2427 6.32015 56.2427 6.61373V11.2716C56.2427 14.3193 54.532 15.814 51.8288 15.814C49.1257 15.814 47.4733 14.302 47.4733 11.3429V11.3397ZM58.4814 14.5925C58.3516 14.4958 58.2463 14.37 58.1739 14.2252C58.1015 14.0804 58.0641 13.9207 58.0646 13.7588C58.0641 13.6232 58.0907 13.4889 58.1429 13.3638C58.195 13.2386 58.2716 13.1252 58.3682 13.03C58.4647 12.9349 58.5793 12.8599 58.7052 12.8096C58.8311 12.7594 58.9658 12.7347 59.1013 12.7372C59.3281 12.7356 59.5494 12.8063 59.7331 12.9391C60.4956 13.4985 61.3282 13.8463 62.3056 13.8463C63.2117 13.8463 63.7582 13.4856 63.7582 12.8959V12.8668C63.7582 12.3052 63.4126 12.019 61.73 11.587C59.7029 11.0697 58.3961 10.507 58.3961 8.51124V8.48316C58.3961 6.65585 59.8616 5.44953 61.9179 5.44953C63.0452 5.43251 64.1534 5.74154 65.1092 6.33942C65.3001 6.4569 65.4472 6.63365 65.5282 6.84264C65.6091 7.05164 65.6194 7.2814 65.5574 7.49679C65.4955 7.71217 65.3647 7.90135 65.1851 8.0354C65.0054 8.16944 64.7869 8.24098 64.5627 8.23909C64.3651 8.23938 64.1713 8.18439 64.0033 8.08033C63.27 7.64834 62.5788 7.40427 61.8898 7.40427C61.042 7.40427 60.5939 7.79198 60.5939 8.28013V8.31577C60.5939 8.97671 61.0258 9.1927 62.7646 9.63873C64.8057 10.1701 65.957 10.9034 65.957 12.6626V12.6918C65.957 14.6887 64.4321 15.8108 62.2613 15.8108C60.9064 15.8114 59.5851 15.3894 58.4814 14.6033V14.5925ZM68.0856 6.69581C68.0849 6.55049 68.1131 6.40648 68.1685 6.27215C68.2239 6.13782 68.3055 6.01586 68.4085 5.91336C68.5116 5.81085 68.6339 5.72985 68.7685 5.67507C68.9031 5.62028 69.0473 5.59281 69.1926 5.59424H72.0113C75.1734 5.59424 77.3582 7.7639 77.3582 10.5956V10.6237C77.3582 13.4575 75.1734 15.6552 72.0113 15.6552H69.1926C69.0469 15.6567 68.9024 15.6291 68.7675 15.574C68.6326 15.519 68.5101 15.4376 68.407 15.3346C68.3039 15.2316 68.2224 15.1092 68.1672 14.9743C68.1121 14.8395 68.0843 14.695 68.0856 14.5493V6.69581ZM72.0113 13.6541C73.8224 13.6541 75.0438 12.4315 75.0438 10.6496V10.6193C75.0438 8.83847 73.8224 7.58571 72.0113 7.58571H70.2995V13.6541H72.0113ZM79.3086 11.3397V6.61373C79.304 6.46553 79.3292 6.3179 79.3827 6.17962C79.4362 6.04133 79.517 5.91521 79.6202 5.80874C79.7234 5.70226 79.8469 5.61761 79.9835 5.55979C80.12 5.50198 80.2668 5.47219 80.4151 5.47219C80.5634 5.47219 80.7101 5.50198 80.8467 5.55979C80.9832 5.61761 81.1068 5.70226 81.2099 5.80874C81.3131 5.91521 81.3939 6.04133 81.4474 6.17962C81.5009 6.3179 81.5261 6.46553 81.5215 6.61373V11.2857C81.5215 12.9251 82.3412 13.7696 83.6922 13.7696C85.0433 13.7696 85.863 12.9488 85.863 11.3548V6.61373C85.863 6.32015 85.9796 6.03859 86.1872 5.83099C86.3948 5.62339 86.6764 5.50676 86.9699 5.50676C87.2635 5.50676 87.5451 5.62339 87.7527 5.83099C87.9603 6.03859 88.0769 6.32015 88.0769 6.61373V11.2716C88.0769 14.3193 86.3662 15.814 83.6642 15.814C80.9621 15.814 79.3086 14.302 79.3086 11.3429V11.3397ZM90.3168 14.5925C90.1866 14.4961 90.081 14.3703 90.0084 14.2255C89.9358 14.0807 89.8983 13.9208 89.8988 13.7588C89.8984 13.6234 89.9249 13.4893 89.9769 13.3643C90.0289 13.2393 90.1053 13.1259 90.2017 13.0308C90.298 12.9357 90.4123 12.8607 90.538 12.8103C90.6636 12.7599 90.7981 12.735 90.9334 12.7372C91.1605 12.7353 91.3823 12.806 91.5663 12.9391C92.3288 13.4985 93.1625 13.8463 94.1399 13.8463C95.0449 13.8463 95.5924 13.4856 95.5924 12.8959V12.8668C95.5924 12.3052 95.2468 12.019 93.5642 11.587C91.5371 11.0697 90.2304 10.507 90.2304 8.51124V8.48316C90.2304 6.65585 91.6959 5.44953 93.7522 5.44953C94.8794 5.43276 95.9876 5.74176 96.9435 6.33942C97.1343 6.4569 97.2815 6.63365 97.3624 6.84264C97.4434 7.05164 97.4536 7.2814 97.3917 7.49679C97.3297 7.71217 97.1989 7.90135 97.0193 8.0354C96.8397 8.16944 96.6211 8.24098 96.397 8.23909C96.199 8.23935 96.0049 8.18437 95.8365 8.08033C95.1021 7.64834 94.4142 7.40427 93.723 7.40427C92.8752 7.40427 92.427 7.79198 92.427 8.28013V8.31577C92.427 8.97671 92.859 9.1927 94.5967 9.63873C96.6378 10.1701 97.788 10.9034 97.788 12.6626V12.6918C97.788 14.6887 96.2653 15.8108 94.0945 15.8108C92.7395 15.8119 91.418 15.3898 90.3146 14.6033L90.3168 14.5925ZM99.1477 14.2437L102.658 6.32106C102.901 5.78108 103.347 5.44629 103.954 5.44629H104.081C104.686 5.44629 105.118 5.77676 105.361 6.32106L108.87 14.2437C108.94 14.382 108.979 14.5338 108.984 14.6887C108.986 14.8278 108.96 14.966 108.908 15.0951C108.856 15.2242 108.779 15.3417 108.682 15.4407C108.584 15.5397 108.467 15.6183 108.339 15.6718C108.21 15.7253 108.072 15.7527 107.933 15.7524C107.418 15.7524 107.069 15.4522 106.871 14.9965L106.194 13.4143H101.767L101.062 15.0667C100.983 15.2718 100.843 15.4479 100.661 15.5712C100.478 15.6945 100.263 15.7593 100.043 15.7568C99.9076 15.7572 99.7735 15.7307 99.6485 15.6787C99.5235 15.6267 99.4101 15.5503 99.315 15.4539C99.2198 15.3576 99.1449 15.2433 99.0945 15.1176C99.044 14.992 99.0192 14.8575 99.0213 14.7221C99.0305 14.5569 99.0743 14.3953 99.1499 14.248L99.1477 14.2437ZM105.377 11.4477L103.981 8.12353L102.586 11.4477H105.377ZM110.659 6.64613C110.658 6.5004 110.686 6.35587 110.741 6.22098C110.796 6.08609 110.877 5.96355 110.98 5.8605C111.083 5.75745 111.206 5.67596 111.341 5.62079C111.476 5.56561 111.62 5.53787 111.766 5.53916H111.993C112.523 5.53916 112.84 5.79836 113.142 6.18715L117.412 11.7933V6.59861C117.421 6.31484 117.54 6.04567 117.744 5.8481C117.948 5.65052 118.221 5.54004 118.505 5.54004C118.788 5.54004 119.061 5.65052 119.265 5.8481C119.469 6.04567 119.588 6.31484 119.597 6.59861V14.6066C119.598 14.7522 119.57 14.8966 119.515 15.0313C119.46 15.1661 119.379 15.2885 119.276 15.3915C119.173 15.4945 119.05 15.576 118.916 15.6313C118.781 15.6866 118.637 15.7146 118.491 15.7136H118.418C117.886 15.7136 117.571 15.4544 117.268 15.0656L112.841 9.2575V14.6465C112.841 14.9361 112.726 15.2138 112.521 15.4186C112.316 15.6234 112.038 15.7384 111.749 15.7384C111.459 15.7384 111.181 15.6234 110.977 15.4186C110.772 15.2138 110.657 14.9361 110.657 14.6465L110.659 6.64613Z" fill="white"/>
<path d="M123.193 13.3128C123.359 13.3071 123.523 13.3349 123.678 13.3947C123.832 13.4544 123.972 13.5448 124.091 13.6604C124.209 13.7759 124.303 13.9143 124.366 14.0671C124.43 14.2199 124.462 14.3839 124.46 14.5493V14.5796C124.46 14.9153 124.327 15.2372 124.089 15.4746C123.852 15.712 123.53 15.8453 123.194 15.8453C122.859 15.8453 122.537 15.712 122.299 15.4746C122.062 15.2372 121.929 14.9153 121.929 14.5796V14.5504C121.927 14.3851 121.958 14.2212 122.022 14.0685C122.085 13.9158 122.178 13.7775 122.297 13.6619C122.415 13.5463 122.555 13.4559 122.709 13.3961C122.863 13.3363 123.028 13.3083 123.193 13.3139" fill="white"/>
<path d="M125.608 10.5837V10.5545C125.608 7.66022 127.79 5.29077 130.917 5.29077C132.443 5.29077 133.478 5.69792 134.319 6.32214C134.454 6.42744 134.563 6.5623 134.638 6.71638C134.713 6.87046 134.752 7.03965 134.751 7.21096C134.75 7.35507 134.721 7.49765 134.665 7.63047C134.61 7.7633 134.528 7.88373 134.425 7.98483C134.322 8.08593 134.201 8.1657 134.067 8.21953C133.933 8.27336 133.79 8.3002 133.646 8.29849C133.406 8.2965 133.173 8.22113 132.977 8.08249C132.351 7.61595 131.697 7.35567 130.897 7.35567C129.181 7.35567 127.945 8.78231 127.945 10.5265V10.5556C127.945 12.3019 129.151 13.7545 130.897 13.7545C131.843 13.7545 132.467 13.464 133.107 12.9553C133.211 12.8667 133.331 12.7995 133.461 12.7573C133.59 12.7152 133.727 12.699 133.863 12.7096C133.999 12.7203 134.132 12.7577 134.253 12.8196C134.375 12.8814 134.483 12.9667 134.571 13.0703C134.66 13.174 134.727 13.2941 134.769 13.4238C134.811 13.5535 134.828 13.6902 134.817 13.8261C134.806 13.962 134.769 14.0945 134.707 14.216C134.645 14.3375 134.56 14.4457 134.456 14.5342C133.539 15.3345 132.464 15.814 130.836 15.814C127.838 15.814 125.613 13.5029 125.613 10.5794" fill="white"/>
<path d="M136.197 10.5837V10.5545C136.197 7.66022 138.479 5.29077 141.621 5.29077C144.762 5.29077 147.021 7.63107 147.021 10.5254V10.5545C147.021 13.4467 144.738 15.8183 141.596 15.8183C138.454 15.8183 136.196 13.4769 136.196 10.5837H136.197ZM144.674 10.5837V10.5545C144.674 8.80931 143.394 7.35459 141.592 7.35459C139.789 7.35459 138.537 8.78123 138.537 10.5254V10.5545C138.537 12.3009 139.817 13.7534 141.62 13.7534C143.422 13.7534 144.674 12.3279 144.674 10.5837Z" fill="white"/>
<path d="M149.155 6.60833C149.153 6.46094 149.182 6.31479 149.238 6.1784C149.293 6.042 149.376 5.91808 149.48 5.81386C149.584 5.70963 149.708 5.62718 149.845 5.57131C149.981 5.51544 150.127 5.48725 150.275 5.4884H150.522C150.728 5.4851 150.931 5.53741 151.11 5.63984C151.289 5.74227 151.438 5.89104 151.539 6.07051L154.239 10.4779L156.96 6.05539C157.058 5.87697 157.203 5.7294 157.381 5.62925C157.558 5.52909 157.759 5.48032 157.963 5.4884H158.216C158.363 5.4874 158.509 5.51569 158.645 5.57162C158.781 5.62756 158.905 5.71004 159.009 5.81425C159.113 5.91846 159.196 6.04232 159.252 6.17865C159.307 6.31497 159.336 6.46103 159.334 6.60833V14.693C159.339 14.8419 159.314 14.9902 159.26 15.1292C159.206 15.2681 159.125 15.3949 159.021 15.5019C158.918 15.6088 158.793 15.6939 158.656 15.752C158.519 15.8101 158.372 15.84 158.223 15.84C158.074 15.84 157.926 15.8101 157.789 15.752C157.652 15.6939 157.528 15.6088 157.424 15.5019C157.32 15.3949 157.239 15.2681 157.185 15.1292C157.131 14.9902 157.106 14.8419 157.111 14.693V9.61713L155.147 12.641C154.914 12.9888 154.622 13.208 154.216 13.208C153.81 13.208 153.518 12.992 153.285 12.641L151.351 9.65925V14.72C151.351 14.8644 151.322 15.0074 151.266 15.1406C151.21 15.2738 151.129 15.3946 151.026 15.496C150.923 15.5974 150.801 15.6775 150.667 15.7315C150.533 15.7855 150.39 15.8125 150.245 15.8108C150.102 15.8122 149.959 15.785 149.826 15.7307C149.693 15.6764 149.572 15.5961 149.471 15.4945C149.369 15.3929 149.289 15.2721 149.235 15.1391C149.18 15.0061 149.153 14.8636 149.155 14.72V6.60833Z" fill="white"/>
</svg>
